<svg id="Layer_1" data-name="Layer 1" xmlns="http://www.w3.org/2000/svg" viewBox="0 0 1100 800"><defs><style>.cls-1{fill:#e94335}.cls-2{fill:#3c4043}.cls-3{fill:#fff}.cls-4{fill:#4284f3}.cls-6{fill:#cb9269}.cls-7{fill:#8e4819}.cls-8{fill:#cde9d5}.cls-9{fill:#ff8a69}.cls-10{fill:#fad2cf}.cls-11{fill:#fabb04}.cls-12{fill:#34a753}</style></defs><path class="cls-1" d="M979.69 176.44h25.69v25.69h-25.69z"/><path class="cls-1" d="M1006.38 203.13h-27.69v-27.69h27.69zm-25.69-2h23.69v-23.69h-23.69z"/><path class="cls-2" d="M618.21 96.75c0-33.69 63.73-36 63.73 1.3 0 23.45-22.1 31.73-22.1 31.73s-13.21-5.62-23.45 0c0 0-18.18-10.24-18.18-33.03z"/><path class="cls-2" d="M636.39 130.78a1 1 0 01-.49-.13c-.19-.11-18.69-10.79-18.69-33.9a24.1 24.1 0 0110.5-20.16c6-4.33 14.27-6.82 22.71-6.82 15.66 0 32.52 8.85 32.52 28.28 0 23.87-22.52 32.58-22.75 32.67a1 1 0 01-.74 0c-.13 0-12.9-5.35-22.58 0a1 1 0 01-.48.06zm10.66-4.51a37.49 37.49 0 0112.79 2.43c2.77-1.18 21.1-9.78 21.1-30.65 0-8.23-3.26-15.08-9.43-19.79-5.49-4.18-13-6.49-21.09-6.49-15.51 0-31.21 8.58-31.21 25 0 19.91 14.45 30.11 17.22 31.88a23.2 23.2 0 0110.62-2.38z"/><path class="cls-3" d="M636.39 129.78l1 9 20.61 1.35 1.87-10.35s-9.39-5.73-23.48 0z"/><path class="cls-2" d="M658 141.13h-.06l-20.59-1.33a1 1 0 01-.93-.88l-1-9a1 1 0 01.62-1c14.39-5.85 23.94-.17 24.34.08a1 1 0 01.47 1L659 140.31a1 1 0 01-1 .82zm-19.69-3.27l18.86 1.21 1.59-8.75c-2.18-1-10.17-4.14-21.26.11zM760.94 730.23H568.06a1 1 0 010-2h192.88a1 1 0 010 2z"/><path class="cls-4" d="M324.61 675.72h291.3v30.39h-291.3z"/><path class="cls-4" d="M615.91 707.11h-291.3a1 1 0 01-1-1v-30.39a1 1 0 011-1h291.3a1 1 0 011 1v30.39a1 1 0 01-1 1zm-290.3-2h289.3v-28.39h-289.3z"/><path fill="#d1e2fb" d="M265.82 235.14h483.52v336.88H265.82z"/><path class="cls-3" d="M143.82 208.05s90.5-103 162.5-103c58.13 0-31.71 97.76-31.71 97.76s31.71-25.1 56.81-25.1 11.23 27.74 11.23 27.74"/><path class="cls-2" d="M143.82 209.05a1 1 0 01-.66-.24 1 1 0 01-.09-1.42 509.05 509.05 0 0154.37-51.63c29-23.61 71.39-51.75 108.88-51.75 10.2 0 16.69 3 19.29 8.92 8.64 19.67-29.09 66.2-44.26 83.75 3.18-2.16 7.22-4.75 11.76-7.33 14.84-8.41 27.72-12.68 38.31-12.68 6.88 0 11.62 2 14.1 6.05 5.24 8.48-1.68 22.54-2 23.14a1 1 0 01-1.34.45 1 1 0 01-.45-1.35c.07-.13 6.73-13.66 2.07-21.19-2.09-3.38-6.27-5.1-12.4-5.1-24.46 0-55.87 24.63-56.19 24.88a1 1 0 01-1.35-1.46 422.51 422.51 0 0028.86-35.77c17.86-25.08 25.14-43.26 21-52.58-2.25-5.13-8.13-7.73-17.46-7.73-70.72 0-160.84 101.68-161.75 102.7a1 1 0 01-.69.34zM265.82 690.91l22.98 5.94 5.08-13.18-28.06 7.24z"/><path class="cls-2" d="M288.8 697.85a1 1 0 01-.25 0l-23-5.94a1 1 0 010-1.93l28.05-7.25a1 1 0 011 .3 1 1 0 01.19 1l-5.08 13.18a1 1 0 01-.91.64zm-19-6.93l18.36 4.74 4.06-10.54z"/><path class="cls-3" d="M328.36 690.92a31.69 31.69 0 00-3.75-15.2l-30.74 7.95-5.07 13.18 35.81 9.26a31.67 31.67 0 003.75-15.19z"/><path class="cls-2" d="M324.61 707.11h-.25l-35.81-9.26a1 1 0 01-.64-.51 1 1 0 01-.05-.82l5.08-13.18a1 1 0 01.68-.61l30.74-8a1 1 0 011.11.45 33.69 33.69 0 010 31.43 1 1 0 01-.86.5zm-34.48-11l34 8.78a31.89 31.89 0 000-28.05l-29.49 7.62zM1039.91 730.23H936a1 1 0 010-2h103.92a1 1 0 010 2z"/><path class="cls-3" d="M1001.98 608.51l52.47-66.22"/><path class="cls-2" d="M1002 609.51a1 1 0 01-.78-1.62l52.46-66.22a1 1 0 011.41-.16 1 1 0 01.16 1.4l-52.47 66.22a1 1 0 01-.78.38z"/><path class="cls-6" d="M810.56 359.56c-9.32 38.4-75.71 102.36-90.24 138.25-4.63 10.13 13.95.61 26.75-20.91 21.8-36.66 88.3-73.12 94.52-121.44z"/><path class="cls-6" d="M721.11 502.87a2.82 2.82 0 01-1.32-.29c-1-.53-1.9-1.86-.38-5.18 6.52-16.12 23.23-37.59 40.92-60.32 21.71-27.88 44.15-56.72 49.26-77.76a1 1 0 01.84-.75l31-4.1a1 1 0 01.83.28 1 1 0 01.29.84c-3.89 30.25-30.49 55.3-56.21 79.52-15.53 14.63-30.2 28.44-38.44 42.3A78.6 78.6 0 01731.7 497c-1.76 1.51-7.2 5.87-10.59 5.87zm90.25-142.41c-5.51 21.39-27.84 50.09-49.45 77.85-17.6 22.62-34.23 44-40.66 59.88-.81 1.76-.7 2.53-.54 2.61 2.09 1.1 15.29-7.25 25.5-24.41 8.38-14.1 23.15-28 38.79-42.74 25.09-23.63 51-48 55.41-77z"/><path class="cls-2" d="M635.69 415.03h-15.81v-15.82l15.81 15.82z"/><path class="cls-2" d="M635.69 416h-15.81a1 1 0 01-1-1v-15.79a1 1 0 011.7-.71l15.82 15.82a1 1 0 01.22 1.09 1 1 0 01-.93.59zm-14.81-2h12.4l-12.4-12.4zM641.57 409.15v-15.81h-15.82l15.82 15.81z"/><path class="cls-2" d="M641.57 410.15a1 1 0 01-.71-.29L625 394a1 1 0 01.71-1.7h15.82a1 1 0 011 1v15.81a1 1 0 01-.62.93 1.06 1.06 0 01-.34.11zm-13.4-15.81l12.4 12.4v-12.4zM389.22 412.49a1 1 0 010-2 55 55 0 10-55-55 1 1 0 01-2 0 57 57 0 1157 57z"/><circle class="cls-4" cx="285.47" cy="254.13" r="4.13"/><path class="cls-4" d="M285.47 259.26a5.13 5.13 0 115.13-5.13 5.14 5.14 0 01-5.13 5.13zm0-8.26a3.13 3.13 0 103.13 3.13 3.13 3.13 0 00-3.13-3.13z"/><circle class="cls-2" cx="303.97" cy="254.13" r="4.13"/><path class="cls-2" d="M304 259.26a5.13 5.13 0 115.13-5.13 5.14 5.14 0 01-5.13 5.13zm0-8.26a3.13 3.13 0 103.13 3.13A3.13 3.13 0 00304 251z"/><circle class="cls-2" cx="322.47" cy="254.13" r="4.13"/><path class="cls-2" d="M322.47 259.26a5.13 5.13 0 115.12-5.13 5.14 5.14 0 01-5.12 5.13zm0-8.26a3.13 3.13 0 103.12 3.13 3.13 3.13 0 00-3.12-3.13zM132.91 343.84c0-3.53 10.29-5.66 11.16-8.91s-6.92-10.35-5.21-13.3 11.7.31 14.13-2.12-.87-12.4 2.12-14.13 9.93 6.11 13.3 5.21 5.38-11.16 8.91-11.16 5.66 10.29 8.92 11.16 10.35-6.92 13.3-5.21-.31 11.7 2.12 14.13 12.4-.87 14.13 2.12-6.12 9.93-5.22 13.3 11.17 5.38 11.17 8.91-10.3 5.66-11.17 8.92 6.92 10.35 5.22 13.3-11.71-.31-14.13 2.12.87 12.4-2.13 14.13-9.93-6.12-13.3-5.22-5.38 11.17-8.91 11.17-5.66-10.3-8.91-11.17-10.35 6.92-13.3 5.22.31-11.71-2.12-14.13-12.4.87-14.13-2.12 6.11-9.94 5.21-13.3-11.16-5.39-11.16-8.92z"/><path class="cls-2" d="M177.32 389.26c-2.47 0-4-3-5.68-6.26-1.06-2.07-2.38-4.65-3.49-4.94s-3.69 1.29-5.7 2.59c-3 1.91-5.78 3.72-7.84 2.52s-1.93-4.58-1.75-8.14c.12-2.36.26-5.3-.58-6.15s-3.78-.69-6.14-.58c-3.57.18-6.94.35-8.15-1.74s.61-4.87 2.53-7.84c1.29-2 2.9-4.52 2.59-5.71s-2.87-2.42-4.94-3.48c-3.22-1.65-6.26-3.21-6.26-5.69s3-4 6.26-5.68c2.07-1.06 4.64-2.38 4.94-3.49s-1.3-3.69-2.59-5.7c-1.91-3-3.72-5.78-2.53-7.84s4.58-1.93 8.15-1.75c2.36.12 5.3.26 6.14-.58s.7-3.78.58-6.14c-.18-3.57-.35-6.94 1.75-8.15s4.87.62 7.84 2.53c2 1.29 4.51 2.91 5.7 2.59s2.43-2.87 3.49-4.94c1.65-3.22 3.21-6.26 5.68-6.26s4 3 5.69 6.26c1.06 2.07 2.38 4.64 3.48 4.94s3.7-1.3 5.71-2.59c3-1.91 5.77-3.72 7.84-2.53s1.92 4.58 1.75 8.15c-.12 2.36-.27 5.3.57 6.14s3.79.7 6.15.58c3.56-.18 6.93-.35 8.14 1.75S216 326 214.13 329c-1.3 2-2.91 4.51-2.59 5.7s2.87 2.43 4.94 3.49c3.22 1.65 6.26 3.21 6.26 5.68s-3 4-6.26 5.69c-2.07 1.06-4.65 2.38-4.94 3.48s1.29 3.7 2.59 5.71c1.91 3 3.72 5.78 2.52 7.84s-4.58 1.92-8.14 1.75c-2.37-.12-5.3-.27-6.15.57s-.69 3.79-.58 6.15c.18 3.56.35 6.93-1.74 8.14s-4.87-.61-7.85-2.52c-2-1.3-4.51-2.91-5.7-2.59s-2.42 2.87-3.48 4.94c-1.65 3.19-3.21 6.23-5.69 6.23zM167.83 376a3 3 0 01.84.11c2 .52 3.31 3.16 4.75 5.95 1.18 2.31 2.65 5.18 3.9 5.18s2.73-2.87 3.91-5.18c1.43-2.79 2.78-5.43 4.75-6s4.59 1.1 7.3 2.84c2.12 1.37 4.76 3.07 5.75 2.48s.88-3.77.76-6.31c-.16-3.18-.31-6.19 1.16-7.66s4.47-1.32 7.66-1.16c2.54.12 5.71.28 6.31-.75s-1.11-3.64-2.48-5.76c-1.74-2.71-3.38-5.26-2.83-7.3s3.16-3.32 5.95-4.75c2.31-1.18 5.18-2.65 5.18-3.91s-2.87-2.72-5.18-3.9c-2.79-1.44-5.43-2.79-5.95-4.75s1.09-4.6 2.83-7.3c1.37-2.12 3.06-4.75 2.48-5.76s-3.77-.88-6.31-.75c-3.19.16-6.19.31-7.66-1.16s-1.32-4.48-1.16-7.66c.12-2.55.28-5.72-.75-6.32s-3.64 1.12-5.76 2.48c-2.7 1.74-5.26 3.39-7.3 2.84s-3.32-3.16-4.75-6c-1.18-2.3-2.65-5.17-3.91-5.17s-2.72 2.87-3.9 5.17c-1.44 2.8-2.79 5.44-4.75 6s-4.6-1.1-7.3-2.84c-2.12-1.36-4.76-3.06-5.76-2.48s-.88 3.77-.75 6.32c.16 3.18.31 6.19-1.16 7.66s-4.48 1.32-7.66 1.16c-2.55-.13-5.72-.29-6.32.75s1.12 3.64 2.48 5.76c1.74 2.7 3.39 5.25 2.84 7.3s-3.16 3.31-6 4.75c-2.3 1.18-5.17 2.65-5.17 3.9s2.87 2.73 5.17 3.91c2.8 1.43 5.43 2.78 6 4.75s-1.1 4.59-2.84 7.3c-1.36 2.12-3.06 4.75-2.48 5.75s3.77.88 6.32.76c3.18-.16 6.19-.31 7.66 1.16s1.32 4.47 1.16 7.66c-.13 2.54-.29 5.71.75 6.31s3.64-1.11 5.76-2.48c2.34-1.44 4.57-2.9 6.46-2.9z"/><path class="cls-7" d="M217.47 387c1.44-10.13-7.55-11.43-9.13-6.38-2.09 6.66 2.53 9.8 2.53 9.8s-8.55 5.38-12.82 8c-.72 8.85-5.05 14.91-12 18.58l31.95 4c-3.53-4.58-2.21-16-2.21-16s13.87 7.37 16.19-11.23c.84-6.75.64-12.2-.51-16.48-2.74 3.71-8.25 9.97-14 9.71z"/><path class="cls-7" d="M218 422h-.13L186 418a1 1 0 01-.85-.81 1 1 0 01.51-1.06c6.92-3.68 10.77-9.67 11.43-17.78a1 1 0 01.47-.77c3.33-2.07 9.27-5.8 11.72-7.34-1.4-1.52-3.46-4.82-1.86-9.94a5.06 5.06 0 016.08-3.43c2.91.66 5.51 3.71 5.13 9.09 4.9-.48 9.62-5.89 12.1-9.23a1 1 0 011-.39 1 1 0 01.78.73c1.2 4.43 1.38 10.1.54 16.86-.8 6.41-3 10.6-6.64 12.48s-7.63.87-9.66.1c-.21 3.09-.43 10.63 2.12 13.95a1 1 0 01.07 1.11 1 1 0 01-.94.43zm-29-5.69l27.09 3.44c-2.39-5.41-1.38-14.47-1.33-14.9a1 1 0 01.53-.77 1 1 0 01.93 0c.05 0 5.05 2.62 9.16.48 3-1.56 4.86-5.24 5.56-11a46.93 46.93 0 000-14.07c-3.14 3.83-8.23 8.65-13.56 8.37a1 1 0 01-.72-.36 1 1 0 01-.22-.78c.74-5.18-1.41-7.56-3.46-8a3.07 3.07 0 00-3.73 2.08c-1.83 5.83 2 8.56 2.15 8.67a1 1 0 01.43.85 1 1 0 01-.47.82s-8 5.05-12.4 7.77c-.7 7.64-4.03 13.47-9.89 17.44z"/><path class="cls-2" d="M208.34 380.57c1.58-5.05 10.57-3.75 9.13 6.38 5.75.31 11.26-5.93 14-9.65-2-7.52-7-11.41-14.69-12.26-12-1.32-23.34 4.85-19.81 20.81a42.64 42.64 0 011.05 12.55c4.27-2.65 12.82-8 12.82-8s-4.59-3.17-2.5-9.83z"/><path class="cls-2" d="M198.05 399.4a1 1 0 01-.53-.15 1 1 0 01-.47-.93 41.71 41.71 0 00-1-12.25c-1.52-6.89-.44-12.63 3.12-16.6 3.83-4.26 10.32-6.24 17.78-5.42 8.23.91 13.46 5.28 15.54 13a1 1 0 01-.16.85c-2.9 3.9-8.71 10.4-14.88 10.06a1 1 0 01-.72-.36 1 1 0 01-.22-.78c.74-5.18-1.41-7.56-3.46-8a3.07 3.07 0 00-3.73 2.08c-1.83 5.83 2 8.56 2.15 8.67a1 1 0 01.43.85 1 1 0 01-.47.82s-8.55 5.39-12.83 8a1 1 0 01-.55.16zm15.6-33.53c-5.5 0-10.14 1.74-13 4.94-3.11 3.47-4 8.59-2.66 14.83a45.65 45.65 0 011.17 10.9c3.39-2.11 8-5 10.1-6.33-1.4-1.52-3.46-4.82-1.86-9.94a5.06 5.06 0 016.08-3.43c2.91.66 5.51 3.71 5.13 9.09 4.71-.46 9.26-5.49 11.81-8.84-2-6.63-6.43-10.25-13.69-11a26.89 26.89 0 00-3.08-.22zM122.8 487.8c-17-8.26-28.1-.45-19.11 27.79 0 0 13.16-21.3 19.11-27.79z"/><path class="cls-2" d="M103.69 516.59h-.13a1 1 0 01-.83-.69c-5.91-18.59-2.66-26.38 1.12-29.64 4.19-3.63 11.08-3.4 19.38.65a1 1 0 01.55.71 1 1 0 01-.25.86c-5.81 6.35-18.86 27.43-19 27.65a1 1 0 01-.84.46zm7.77-30.91a9.4 9.4 0 00-6.31 2.09c-4.44 3.84-4.84 12.83-1.15 25.43 3.18-5.07 12-19 17.17-25.06a24.32 24.32 0 00-9.71-2.46z"/><path class="cls-4" d="M103.72 487.78c27.66-33.34 66.86-73.19 95.48-73.19s42.71 41 42.71 41l64.08-41s17.83 7.26 20 21.35c-13.41 16.37-73.32 63.66-85.87 64.2s-84.33 6.15-84.33 6.15l-33-18.49s-12.17-6.75-19.07-.02z"/><path class="cls-4" d="M155.82 507.29a1 1 0 01-.49-.13l-33-18.49c-.11-.06-11.61-6.3-17.89-.17a1 1 0 01-1.47-1.36c27.84-33.56 67.14-73.55 96.25-73.55 26.57 0 40.61 33.5 43.23 40.44l63-40.29a1 1 0 01.92-.08c.75.3 18.38 7.65 20.64 22.13a1 1 0 01-.21.79c-13.57 16.54-73.74 64-86.6 64.56-12.39.53-83.58 6.09-84.3 6.15zm-44.09-23.52a26.88 26.88 0 0111.55 3.15l32.77 18.35c5.1-.4 72-5.62 84.06-6.13s71.21-47.22 84.85-63.48c-2.16-11.84-16.14-18.7-18.88-19.94l-63.63 40.66a1 1 0 01-.86.1 1 1 0 01-.62-.61 94.18 94.18 0 00-10.53-20.27c-6.33-9.13-16.9-20-31.24-20-15.27 0-43.4 12.05-91.22 68.66a14.08 14.08 0 013.75-.49z"/><path class="cls-3" d="M180.59 618.17s119.23-23 124.08-54.08-98.73-57.6-98.73-57.6l-67.3 80.8s29.32-1.81 104.79-27c0 0-56.23 20.64-68.12 28.24z"/><path class="cls-2" d="M180.59 619.17a1 1 0 01-.59-.17 1 1 0 01-.42-.65l-5.28-29.64a1 1 0 01.44-1c5.7-3.65 21.21-10.15 36-16C160 586.8 139 588.27 138.7 588.28a1 1 0 01-.95-.54 1 1 0 01.12-1.09l67.3-80.8a1 1 0 011-.33c4.27 1.09 104.4 27.14 99.48 58.72-2.08 13.29-23.79 26.57-64.54 39.49a613.23 613.23 0 01-60.34 15.42.58.58 0 01-.18.02zM176.41 589l5 28c11.49-2.32 117.83-24.53 122.28-53 1.9-12.19-14.33-25.8-46.93-39.36a431.33 431.33 0 00-50.45-17L141 586c8.41-1 39.46-5.78 102.14-26.7a1 1 0 011.26.62 1 1 0 01-.6 1.27c-.58.24-54.6 20.11-67.39 27.81z"/><path class="cls-3" d="M200.3 451.58s2.22 19.47 6.83 27.46"/><path class="cls-2" d="M207.13 480a1 1 0 01-.86-.5c-4.67-8.08-6.87-27.05-7-27.85a1 1 0 112-.23c0 .2 2.25 19.36 6.71 27.08a1 1 0 01-.37 1.37 1 1 0 01-.48.13zM360.28 653.82H46.34a1 1 0 010-2h313.94a1 1 0 010 2z"/><path class="cls-3" d="M138.64 601.15l20.71 47.71"/><path class="cls-2" d="M159.35 649.86a1 1 0 01-.92-.6l-20.71-47.71a1 1 0 111.83-.8l20.71 47.71a1 1 0 01-.51 1.32 1.14 1.14 0 01-.4.08z"/><path class="cls-8" d="M156.15 652.82l-21.9-48.66s14.74-13.81 41.06-15.63c.86-.06 5.28 29.64 5.28 29.64L172 644.26s12.22 4.33 12.22 8.56z"/><path class="cls-2" d="M184.23 653.82h-28.08a1 1 0 01-.91-.59l-21.91-48.66a1 1 0 01.23-1.14c.61-.57 15.31-14.08 41.68-15.9 1.15-.07 1.78-.13 6.34 30.49a.89.89 0 010 .46l-8.28 25.18c3.33 1.26 12 4.94 12 9.16a1 1 0 01-1.07 1zm-27.43-2h26.1c-1.4-2.31-7.05-5.14-11.23-6.61a1 1 0 01-.61-1.26l8.51-25.87c-1.47-9.86-3.95-25.37-4.87-28.5-22.5 1.74-36.41 12.48-39.24 14.85z"/><path class="cls-3" d="M215.82 405c-3.3-1.32-5.94-7.05-5.94-7.05"/><path class="cls-2" d="M215.82 406a1 1 0 01-.37-.07c-3.63-1.46-6.37-7.31-6.48-7.56a1 1 0 011.82-.84c.69 1.5 3 5.58 5.4 6.54a1 1 0 01-.37 1.93zM380.09 499.71a1 1 0 01-.9-.57l-13.33-28.05-13.34 28.05a1 1 0 01-1.8-.86L365 468.33a1 1 0 011.81 0L381 498.28a1 1 0 01-.48 1.33.94.94 0 01-.43.1z"/><path class="cls-2" d="M374.55 488h-17.38a1 1 0 010-2h17.38a1 1 0 010 2zM423.62 471.32h-31.71a1 1 0 010-2h31.71a1 1 0 010 2zM423.62 485.11h-31.71a1 1 0 110-2h31.71a1 1 0 010 2zM423.62 498.9h-31.71a1 1 0 110-2h31.71a1 1 0 010 2zM423.62 512.69h-72a1 1 0 110-2h72a1 1 0 010 2z"/><path class="cls-3" transform="rotate(25.77 345.38 389.803)" d="M312.7 386.51h65.39v6.62H312.7z"/><path class="cls-2" d="M373.39 408a1.12 1.12 0 01-.43-.1l-58.88-28.43a1 1 0 01-.51-.57 1 1 0 010-.76l2.88-6a1 1 0 011.33-.47l58.89 28.43a1 1 0 01.5.57 1 1 0 010 .76l-2.88 6a1 1 0 01-.9.57zm-57.54-29.9l57.08 27.56 2-4.16-57.08-27.5z"/><path class="cls-3" d="M383.73 406.77l-1.22 2.52 6.71 1.68-5.49-4.2z"/><path class="cls-2" d="M389.22 412h-.25l-6.7-1.68a1 1 0 01-.66-.55 1 1 0 010-.85l1.22-2.53a1 1 0 011.51-.36l5.49 4.21a1 1 0 01.29 1.23 1 1 0 01-.9.53zm-5.22-3.38l.83.21-.68-.52z"/><path class="cls-3" d="M376.27 401.05l-2.88 5.96 9.12 2.28 1.22-2.52-7.46-5.72z"/><path class="cls-2" d="M382.51 410.29h-.24l-9.12-2.29a1 1 0 01-.66-.55 1 1 0 010-.86l2.88-6a1 1 0 011.51-.36l7.46 5.72a1 1 0 01.29 1.23l-1.22 2.53a1 1 0 01-.9.58zm-7.68-4l7.14 1.79.51-1.05-5.84-4.48z"/><path class="cls-7" d="M367.63 396.88c2.39 1.15 7.72 1.74 4.74-.9s-20.14-11.12-20.14-11.12c-4.3-2.2-13.43-3-22.9 5.84s-15 18.54-23.34 23.89c0 0 12.33 5.33 16.29 12.51L342 401.7s11.77-.19 16.51-9.23z"/><path class="cls-7" d="M322.28 428.1h-.08a1 1 0 01-.79-.51c-3.75-6.8-15.7-12-15.82-12.09a1 1 0 01-.6-.83 1 1 0 01.46-.93c4.73-3 8.65-7.64 12.8-12.52a126.57 126.57 0 0110.4-11.22c12.34-11.47 22.87-6.58 24-6 .7.34 17.32 8.56 20.36 11.26 1.18 1 1.51 2 1 2.8-1.08 1.61-5.31.47-6.81-.25l-8.29-4c-4.65 7.72-14.13 8.76-16.41 8.9l-19.43 25a1 1 0 01-.79.39zM308 414.42c3.29 1.62 10.72 5.67 14.37 10.94l18.83-24.27a1 1 0 01.77-.38c.11 0 11.25-.31 15.64-8.71a1 1 0 011.32-.43l9.14 4.41a10.5 10.5 0 003.78.88l-.14-.13c-2.27-2-14-8.06-19.93-11-8-4.09-17.44 1.64-21.77 5.67a126 126 0 00-10.24 11.08c-3.77 4.52-7.45 8.81-11.77 11.94z"/><path class="cls-2" d="M619.88 429.56l13.59 142.46h-13.59V429.56z"/><path class="cls-2" d="M633.47 573h-13.59a1 1 0 01-1-1V429.56a1 1 0 012-.1l13.6 142.46a1 1 0 01-.26.77 1 1 0 01-.75.31zm-12.59-2h11.49l-11.49-120.44z"/><path class="cls-9" d="M650 216.2a101.59 101.59 0 0037-7.36c-15-5.4-26.12-12.37-29.5-23.58a50.4 50.4 0 01-3.63-11.88h-14.73s-1.43 28.07-26.53 21.46c-2.46-.65-6-1.63-10.45-2.82 8.11 9.38 24.61 24.18 47.84 24.18z"/><path class="cls-9" d="M650 217.2c-23.82 0-40.68-15.37-48.61-24.52a1 1 0 01-.09-1.19 1 1 0 011.11-.43l5 1.36 5.43 1.46c6.75 1.77 12.32 1.11 16.55-2 8-5.82 8.72-18.45 8.72-18.58a1 1 0 011-.94h14.79a1 1 0 011 .86 49.4 49.4 0 003.56 11.63v.11c2.9 9.61 12.07 16.89 28.88 22.92a1 1 0 010 1.87A101.87 101.87 0 01650 217.2zm-44.84-23.33c8.42 8.94 23.84 21.33 44.84 21.33a98.86 98.86 0 0034.18-6.35c-15.84-6.08-24.64-13.5-27.6-23.24a54.94 54.94 0 01-3.54-11.23h-13c-.33 3.21-2 13.65-9.46 19.13-4.74 3.46-10.88 4.24-18.24 2.3l-5.44-1.46z"/><path class="cls-10" d="M801.59 247.36C769 224.67 719 220.31 687 208.84a101.59 101.59 0 01-37 7.36c-23.24 0-39.74-14.8-47.85-24.18-40.53-10.9-152.46-39.06-138.47 16 14.17 55.82 55.78 117.75 55.78 117.75l63.75-41.12-30.39-49.54h196.53v52.24l-24.11 21.84 36.1 31.27s88.19-59.75 40.25-93.1z"/><path class="cls-10" d="M761.34 341.49a1 1 0 01-.65-.24L724.58 310a1 1 0 01-.34-.74 1 1 0 01.32-.75l23.79-21.54v-50.8H554.62l29.45 48a1 1 0 01-.31 1.37L520 326.64a1 1 0 01-1.38-.29c-.41-.62-41.87-62.71-55.92-118-2.63-10.36-1-18.52 4.77-24.23 15.51-15.29 60.9-12.94 134.93 7a1 1 0 01.49.31c7.71 8.9 24.07 23.83 47.1 23.83a99.86 99.86 0 0036.65-7.29 1 1 0 01.71 0c10.71 3.84 23.47 6.89 37 10.11 26.27 6.27 56 13.37 77.82 28.53 9.81 6.83 14.76 15.29 14.7 25.16-.08 13.54-9.38 29.39-27.64 47.1a228.07 228.07 0 01-27.32 22.52 1 1 0 01-.57.1zm-34.6-32.29l34.67 30c6-4.24 53.28-38.3 53.45-67.54.06-9.17-4.6-17.08-13.85-23.51-21.46-14.94-51-22-77.13-28.22-13.42-3.2-26.09-6.23-36.84-10.05a101.71 101.71 0 01-37 7.29c-23.62 0-40.4-15.11-48.41-24.29-73.11-19.65-117.76-22.15-132.7-7.42-5.26 5.18-6.69 12.69-4.24 22.32 13.09 51.56 50.17 109.1 55.1 116.61l62.09-40.05L552 235.66a1 1 0 01.85-1.52h196.5a1 1 0 011 1v52.24a1 1 0 01-.33.74z"/><path class="cls-2" d="M657.53 185.26c-7.82 5.4-20.68 12-31.53 9.57 0 0 8.19-2.19 11.28-12.68z"/><path class="cls-2" d="M630.86 196.34a23.45 23.45 0 01-5.08-.54 1 1 0 010-1.94c.32-.08 7.71-2.22 10.59-12a1 1 0 011.11-.7l20.25 3.11a1 1 0 01.82.76 1 1 0 01-.4 1.05c-4.87 3.33-16.24 10.26-27.29 10.26zm-1.37-2c9.51.58 19.68-4.83 25.33-8.44L638 183.27a19.83 19.83 0 01-8.51 11.03zM519.47 325.8c-7.82-12.35 56-52.68 63.75-41.12s-54.99 52.51-63.75 41.12z"/><path class="cls-2" d="M524.77 328.79c-2.69 0-4.81-.72-6.09-2.38v-.08c-4.54-7.16 10.67-20.69 25.08-30.09 16.23-10.59 35.78-18.9 40.34-12.12 5.09 7.58-14.11 22.26-20.12 26.57-11.31 8.09-29.19 18.1-39.21 18.1zm-4.48-3.57c3.52 4.43 21.38-1 42.47-16.15 14.38-10.33 22.26-19.91 19.63-23.83-3.11-4.63-19.62.95-37.59 12.68-17.09 11.15-27.38 22.62-24.51 27.3zM761.34 340.49c6.67-5.85-27-36.78-36.1-31.27s26.58 40.46 36.1 31.27z"/><path class="cls-2" d="M757.1 343a15.44 15.44 0 01-5.23-1.07c-11.7-4.32-28.27-21-29.07-29.26a4.18 4.18 0 011.92-4.33c7.49-4.55 27.28 11.61 34.73 21.76 4.91 6.69 4.12 9.73 2.57 11.11a6.85 6.85 0 01-4.92 1.79zm-29.22-33.46a4.17 4.17 0 00-2.13.51 2.24 2.24 0 00-1 2.43c.67 6.93 16 23.21 27.77 27.57 2.57.95 6.06 1.66 8.09-.3 1.28-1.12.21-4.27-2.84-8.44-7.4-10.17-22.84-21.75-29.89-21.75z"/><path class="cls-9" d="M570 284.11c12.35 9.82 39.62-5.54 56 .57l22 8.91c5.78 2.48 3 5.84-2.39 5.84l-50.34 11.67s-37.26 1.48-52.73-12.88c0 0 16.61-10.93 27.46-14.11z"/><path class="cls-9" d="M592.36 312.14a146.43 146.43 0 01-17.78-1.1c-15.14-1.92-26.15-6-32.72-12.09a1 1 0 01.13-1.57c.68-.45 16.86-11.05 27.77-14.23a1 1 0 01.9.18c6.26 5 16.77 3.08 27.91 1.07 9.8-1.77 19.93-3.59 27.78-.66l22 8.93c3.76 1.61 4 3.5 3.77 4.48-.39 1.94-3 3.25-6.42 3.28l-50.2 11.64a.58.58 0 01-.19 0s-1.11.07-2.95.07zm-48.17-13.8c15.15 12.68 48.94 11.83 50.95 11.76l50.2-11.64a.83.83 0 01.22 0c2.89 0 4.45-1 4.58-1.68.11-.52-.65-1.41-2.58-2.24l-21.94-8.91c-7.31-2.73-17.16-1-26.7.77-11.36 2.05-22.1 4-29.08-1.15-9.01 2.75-21.84 10.67-25.65 13.09zM760.25 333.09c-7.75 8-19.66 44.17-63.91 13.24l39.3-8.33 8.92-21.25s12.03 10.75 15.69 16.34z"/><path class="cls-9" d="M727.47 359.63c-9.2 0-19.84-4.18-31.71-12.48a1 1 0 01-.4-1 1 1 0 01.77-.78l38.79-8.22 8.72-20.76a1 1 0 01.7-.59 1 1 0 01.89.23c.49.44 12.16 10.9 15.85 16.53a1 1 0 01-.11 1.25 44.12 44.12 0 00-4.05 5.48c-4.7 7-11.8 17.56-24.3 19.89a28 28 0 01-5.15.45zm-28.64-12.81c12.89 8.62 24.13 12.12 33.42 10.38 11.68-2.18 18.23-11.93 23-19.05A58.67 58.67 0 01759 333c-3.26-4.56-11.18-12-14-14.57l-8.38 19.95a1 1 0 01-.71.59z"/><rect class="cls-3" x="573.33" y="299.43" width="185.27" height="46.9" rx="23.45"/><path class="cls-2" d="M735.14 347.33H596.78a24.45 24.45 0 110-48.9h138.36a24.45 24.45 0 110 48.9zm-138.36-46.9a22.45 22.45 0 100 44.9h138.36a22.45 22.45 0 100-44.9z"/><circle class="cls-3" cx="598.3" cy="320.78" r="11.56"/><path class="cls-2" d="M598.3 333.34a12.56 12.56 0 1112.56-12.56 12.58 12.58 0 01-12.56 12.56zm0-23.12a10.56 10.56 0 1010.56 10.56 10.58 10.58 0 00-10.56-10.56z"/><path class="cls-3" d="M604.81 330.33l5.05 8.61"/><path class="cls-2" d="M609.86 339.94a1 1 0 01-.86-.49l-5-8.61a1 1 0 111.72-1l5.05 8.61a1 1 0 01-.35 1.37 1 1 0 01-.56.12z"/><path class="cls-3" d="M749.35 287.38l26.42-23.84"/><path class="cls-2" d="M749.35 288.38a1 1 0 01-.74-.33 1 1 0 01.07-1.41l26.42-23.84a1 1 0 011.34 1.48L750 288.13a1 1 0 01-.65.25z"/><path class="cls-3" d="M122.8 487.8s-28.74 33-28.74 58.45 13.87 41 43.27 41 72.28-46.57 72.28-46.57l-49.82 81.58H208s116.43-142.16 59.12-154.9c-38.65-8.59-111.31 39-111.31 39S136 495.06 122.8 487.8z"/><path class="cls-2" d="M208 623.22h-48.21a1 1 0 01-.87-.51 1 1 0 010-1l45.19-74c-13 12.87-43.67 40.5-66.79 40.5-28.55 0-44.27-14.9-44.27-42 0-10.73 4.89-24 14.52-39.29A178 178 0 01122 487.14a1 1 0 011.24-.22c11.86 6.53 29.27 16.37 32.51 18.2 7.09-4.58 74.21-47.07 111.55-38.78 7.86 1.75 13 6 15.28 12.57 5.46 15.77-5.34 44.82-32.1 86.34a710.36 710.36 0 01-41.74 57.6 1 1 0 01-.74.37zm-46.44-2h46c5.56-6.87 85.39-106.4 73.2-141.65-2.06-6-6.58-9.67-13.82-11.27-19.69-4.38-48.66 6.39-69.5 16.19a378 378 0 00-41 22.64 1 1 0 01-1 0c-.19-.11-19.25-10.91-32.3-18.09-3.87 4.62-28 34.3-28 57.18 0 26.14 14.62 40 42.27 40 11.78 0 27.87-8 46.51-23.05a263.53 263.53 0 0025-23.2 1 1 0 011.33-.12 1 1 0 01.26 1.32z"/><path class="cls-2" d="M159.79 622.22c5.18-8.48 51.74-6.83 48.22 0s-52.85 10.35-48.22 0z"/><path class="cls-2" d="M177.33 629.75c-6.54 0-12.42-.7-15.73-2.29-3.76-1.81-3.32-4.32-2.73-5.65l.06-.11c4.8-7.86 39.79-7.72 48.16-3 2.7 1.53 2.16 3.3 1.81 4-2.15 4.13-18.21 7.05-31.57 7.05zm-16.66-7.06c-.26.6-.68 1.77 1.8 3 9.76 4.69 42.17.91 44.65-3.9.08-.16.3-.59-1-1.33-3.58-2-13.75-3.24-24.18-2.92-11.15.32-19.47 2.35-21.27 5.15z"/><path class="cls-8" d="M178.8 616.46s-8.22 19.19-13.51 36.36H243c0-13-40.52-8.14-35-30.6 1.66-6.81-29.2-5.76-29.2-5.76z"/><path class="cls-2" d="M243 653.82h-77.71a1 1 0 01-.8-.4 1 1 0 01-.16-.89c5.24-17 13.46-36.27 13.55-36.46a1 1 0 01.88-.61c2.6-.09 25.51-.72 29.58 4.28a3.05 3.05 0 01.64 2.71c-3 12.06 8.28 15.64 19.15 19.1 8.17 2.59 15.89 5.05 15.89 11.27a1 1 0 01-1.02 1zm-76.37-2h75.26c-.92-4.08-7.47-6.17-14.38-8.37-10.65-3.38-23.89-7.6-20.49-21.47a1.07 1.07 0 00-.25-1c-2.54-3.12-17.83-3.83-27.32-3.56-1.36 3.27-8.11 19.49-12.8 34.4z"/><path class="cls-3" d="M155.82 506.29l-14.75 9.3"/><path class="cls-2" d="M141.07 516.59a1 1 0 01-.53-1.84l14.75-9.3a1 1 0 011.38.31 1 1 0 01-.31 1.38l-14.76 9.3a1 1 0 01-.53.15z"/><path class="cls-3" d="M209.61 540.64l17.62-26.75"/><path class="cls-2" d="M209.61 541.64a1 1 0 01-.83-1.55l17.61-26.75a1 1 0 011.39-.29 1 1 0 01.28 1.39l-17.61 26.75a1 1 0 01-.84.45zM646.85 146c3.78 11.07 12.52 16.26 21.92 19.14a45.07 45.07 0 001-8.9c.11-14.42-12.77-22.46-23.67-22.46s-23.78 7.49-23.78 25.54c0 .65 0 1.29.05 1.92 6.91-1.37 20.95-5.24 24.48-15.24z"/><path class="cls-2" d="M668.77 166.1a.92.92 0 01-.29 0c-10.93-3.35-18.05-9.09-21.7-17.5-4.7 8.64-17 12.22-24.24 13.62a1 1 0 01-.8-.19 1 1 0 01-.39-.74c0-.65-.05-1.3-.05-2 0-18.23 12.84-26.54 24.78-26.54a26.25 26.25 0 0118.26 7.57 21.85 21.85 0 016.41 15.9 46.09 46.09 0 01-1 9.1 1 1 0 01-.47.65.94.94 0 01-.51.13zM646.85 145a1 1 0 01.94.68c3 8.85 9.45 14.64 20.21 18.17a44.27 44.27 0 00.74-7.62 19.89 19.89 0 00-5.83-14.47 24.2 24.2 0 00-16.84-7c-11 0-22.78 7.68-22.78 24.54v.71c6.51-1.39 19.38-5.24 22.6-14.36a1 1 0 01.96-.65z"/><path class="cls-9" d="M646.85 146c-3.53 10-17.57 13.91-24.5 15.24.87 16.94 13.17 27.48 23.67 27.48 12.78 0 20.23-11.57 22.75-23.58-9.4-2.92-18.14-8.14-21.92-19.14z"/><path class="cls-9" d="M646 189.68c-11.16 0-23.76-10.87-24.67-28.43a1 1 0 01.81-1c6-1.16 20.33-4.89 23.75-14.59a1 1 0 01.94-.67 1 1 0 01.94.68c3.12 9.13 9.87 15 21.26 18.51a1 1 0 01.69 1.16c-2.45 11.75-9.98 24.34-23.72 24.34zM623.41 162c1 12.56 10.15 25.67 22.61 25.67 12.19 0 19.08-11.15 21.58-21.9-10.44-3.39-17.27-9-20.82-17.22-4.51 8.31-16.03 11.95-23.37 13.45z"/><path class="cls-6" d="M857 277.17l-.55-17.1s-17.84 10.21-13.85-19.28l-5.23-.77s8.91-9.92 11.32-21.47c1-15.55 41.07-24.48 38.89 8-2.33 17-9.87 16.4-8.5 29.23 1.15 10.75 10.15 17.54 10.15 17.54z"/><path class="cls-6" d="M857 278.17a1 1 0 01-.65-.24 1 1 0 01-.35-.73l-.5-15.57c-2.19.91-6.45 2.14-9.87-.16-4-2.72-5.42-9.39-4.15-19.83l-4.25-.63a1 1 0 01-.6-1.65c.08-.1 8.72-9.83 11.07-21 .34-4.66 4-9.16 9.8-12 6.55-3.24 16.3-4.41 23.3.27 4 2.66 8.56 8.28 7.78 19.93a40.22 40.22 0 01-5.51 16.15c-2.14 3.8-3.68 6.54-3 12.9 1.09 10.18 9.68 16.79 9.77 16.85a1 1 0 01.36 1.06 1 1 0 01-.85.73l-32.23 3.88zm-.55-19.1a1.05 1.05 0 01.49.13 1 1 0 01.51.84l.52 16 28.91-3.48c-2.78-2.63-7.92-8.53-8.8-16.71-.75-7 1.1-10.29 3.25-14.1a38 38 0 005.26-15.38c.56-8.39-1.82-14.66-6.9-18.06-6.33-4.23-15.27-3.12-21.31-.14-5.18 2.56-8.43 6.46-8.69 10.44a.78.78 0 010 .14c-1.94 9.26-7.84 17.37-10.38 20.54l3.46.5a1 1 0 01.84 1.13c-1.36 10-.27 16.57 3.16 18.88 3.7 2.49 9.15-.57 9.21-.6a1 1 0 01.51-.13z"/><path class="cls-3" d="M856.49 260.07s10.18-5.24 15.5-9.35"/><path class="cls-2" d="M856.5 261.07a1 1 0 01-.89-.54 1 1 0 01.43-1.35c.1-.05 10.16-5.24 15.34-9.25a1 1 0 011.22 1.58c-5.33 4.12-15.23 9.24-15.65 9.45a.91.91 0 01-.45.11zM872.27 240.83a1 1 0 01-.73-.32 1 1 0 010-1.41c4.79-4.47 6.33-10 5-12.82a2.58 2.58 0 00-2.88-1.54 10.46 10.46 0 00-7.74 4.83 1 1 0 01-1.75-1 12.48 12.48 0 019.28-5.85 4.57 4.57 0 014.91 2.69c1.55 3.39.15 9.84-5.5 15.11a1 1 0 01-.59.31zM848.9 217.31s-3.2-11.61 4.27-13.18 37.88-7 35.19 7.09l-1.11 7.59z"/><path class="cls-2" d="M887.25 219.81l-38.34-1.5a1 1 0 01-.93-.74c-.08-.29-1.93-7.15.64-11.38a6.48 6.48 0 014.39-3c6.39-1.35 27.79-5.23 34.49 1.34a7.26 7.26 0 011.89 6.91l-1.15 7.56a1 1 0 01-.99.81zm-37.55-3.47l36.69 1.43 1-6.7a5.31 5.31 0 00-1.31-5.15c-4.77-4.68-20.59-3.36-32.68-.81a4.51 4.51 0 00-3.09 2.11c-1.72 2.78-.98 7.37-.61 9.12z"/><circle class="cls-2" cx="861.56" cy="222.4" r=".84"/><circle class="cls-2" cx="862.02" cy="226.71" r=".84"/><circle class="cls-2" cx="881.91" cy="225.43" r=".84"/><circle class="cls-2" cx="879.93" cy="234.36" r=".84"/><circle class="cls-2" cx="884.57" cy="230.55" r=".84"/><circle class="cls-2" cx="881.53" cy="221.56" r=".84"/><path class="cls-4" d="M976.79 698c-34.2-22.23-107.34-90.5-109.5-162.7-2.2-73.55 11-120.66 11-120.66s66.3 1.3 66.28 0c-11.23 120.22-15.82 139.29 85.56 216.06z"/><path class="cls-4" d="M976.79 699a1 1 0 01-.54-.16c-17.23-11.2-43.88-33.58-67-62.83-34.31-43.39-42.29-78.7-43-100.68A515.9 515.9 0 01871 447.2c3-20.8 6.32-32.77 6.36-32.88a1 1 0 011-.73c24.77.48 62.33.93 65.68.18a1 1 0 011.58.8v.11l-.83 8.84c-10.51 111.69-12.4 131.82 86 206.34a1 1 0 01.18 1.42l-53.34 67.29a1 1 0 01-.84.43zm-97.73-283.4a303.16 303.16 0 00-6.06 31.93 515.19 515.19 0 00-4.66 87.69c.65 21.68 8.55 56.54 42.52 99.5 22.65 28.64 49.38 51.09 65.77 61.89l52.14-65.78c-98.46-74.68-96.53-95.17-86-207.5l.71-7.58c-4.04.41-17.56.77-64.42-.15z"/><circle class="cls-2" cx="868.79" cy="220.78" r=".84"/><path class="cls-4" d="M765.66 687.05S927.18 489.45 943 429.56c7.49-34.79-14.53-60.77-14.53-60.77l-69.14 9 3 25.77-181.85 272.65z"/><path class="cls-4" d="M765.66 688.05h-.12l-85.19-10.85a1 1 0 01-.78-.57 1 1 0 01.08-1l181.65-272.3-2.93-25.4a1 1 0 01.86-1.11l69.14-9a1 1 0 01.89.34c.23.26 22.25 26.76 14.75 61.63-6.62 25-38.51 76-94.8 151.59-41.9 56.26-82.37 105.83-82.77 106.33a1 1 0 01-.78.34zm-83.45-12.63l83 10.57c4.06-5 42.57-52.39 82.36-105.83 55.35-74.33 88-126.49 94.47-150.86 6.77-31.48-11.28-56-14-59.45l-67.6 8.83 2.86 24.78a1 1 0 01-.16.67z"/><path class="cls-2" d="M765.66 688.05a1 1 0 01-.63-.22 1 1 0 01-.14-1.41c.4-.49 40.85-50 82.71-106.26 55.35-74.33 88-126.49 94.47-150.86 7.28-33.87-14.11-59.61-14.33-59.87a1 1 0 111.52-1.29c.23.26 22.25 26.76 14.75 61.63-6.62 25-38.51 76-94.8 151.59-41.9 56.26-82.37 105.83-82.77 106.33a1 1 0 01-.78.36z"/><path class="cls-3" d="M854.08 382.44l80.42-4.63v-21.49l18 17.86 45.91-24.77s-56.81-77.28-121.21-77.28c-57.14 0-75.86 88.65-75.86 88.65l48.52-6.41z"/><path class="cls-2" d="M854.08 383.44a1 1 0 01-1-.85l-4.08-27.1-47.55 6.28a1 1 0 01-.86-.31 1 1 0 01-.25-.89A192.13 192.13 0 01817 316c15.65-29.34 36.48-44.85 60.24-44.85 33.58 0 65 21.14 85.41 38.88a270.32 270.32 0 0136.6 38.81.94.94 0 01.17.81 1 1 0 01-.5.66L953 375.06a1 1 0 01-1.18-.17l-16.3-16.17v19.09a1 1 0 01-.94 1l-80.42 4.63zm-4.22-30.07a1 1 0 011 .85l4.08 27.17 78.57-4.52v-20.55a1 1 0 011.71-.71L952.68 373l44.23-23.86c-6.69-8.71-60.35-76-119.71-76-16 0-39.15 7.59-58.46 43.75a191.51 191.51 0 00-16.1 42.72l47.09-6.23z"/><path class="cls-3" d="M934.5 356.32l-41.61-36.63"/><path class="cls-2" d="M934.5 357.32a1 1 0 01-.66-.25l-41.61-36.63a1 1 0 111.32-1.5l41.62 36.63a1 1 0 01.08 1.41 1 1 0 01-.75.34zM812.53 478.24s46.76 24.64 92.38 22.55l7.22-11.21-86.7-30.68z"/><path class="cls-2" d="M899.4 501.91c-43.57 0-86.88-22.55-87.33-22.78a1 1 0 01-.51-.64 1 1 0 01.14-.8l12.9-19.34a1 1 0 011.17-.39l86.7 30.67a1 1 0 01.61.62 1 1 0 01-.11.87l-7.22 11.21a1 1 0 01-.8.46q-2.77.12-5.55.12zM814 477.86c7 3.47 49.33 23.65 90.35 21.95l6.27-9.71-84.78-30z"/><path class="cls-11" d="M781.34 390.37a125.07 125.07 0 00247.64 0z"/><path class="cls-11" d="M905.16 498.11a125.39 125.39 0 01-124.11-107.7.3.3 0 01.07-.24.29.29 0 01.22-.1H1029a.32.32 0 01.22.1.34.34 0 01.07.24 125.39 125.39 0 01-124.12 107.7zM781.68 390.66a124.78 124.78 0 00247 0z"/><path class="cls-6" d="M965.24 367.31l5.23 112.11s-17.47 9.7-29.35 13.15c0 0 37.4 2.34 41.11-15.34C994 421.26 991.76 353 991.76 353z"/><path class="cls-6" d="M945.35 493.67c-2.61 0-4.26-.1-4.29-.1a1 1 0 01-.94-.89 1 1 0 01.72-1.07c10.47-3 25.56-11.11 28.6-12.76l-5.2-111.49a1 1 0 01.52-.93l26.53-14.31a1 1 0 011.47.84c0 .69 2.06 69-9.56 124.47-1.6 7.67-9.47 12.89-22.75 15.09a95.74 95.74 0 01-15.1 1.15zm20.92-125.78l5.2 111.49a1 1 0 01-.52.92 215.78 215.78 0 01-24 11.35c10.45-.17 31.67-2.09 34.3-14.63 10.57-50.45 9.79-111.68 9.56-122.37z"/><ellipse class="cls-2" cx="723.07" cy="681.63" rx="13.03" ry="42.94" transform="rotate(-82.75 723.023 681.628)"/><path class="cls-2" d="M738 696.65a135 135 0 01-16.74-1.1c-11.47-1.46-22.1-4.2-29.92-7.7-8.29-3.71-12.4-7.78-11.89-11.77s5.5-6.89 14.46-8.41c8.45-1.43 19.42-1.41 30.89.05 21.42 2.72 42.92 10.75 41.81 19.46-.5 4-5.5 6.89-14.46 8.41a85.77 85.77 0 01-14.15 1.06zm-29.94-28a84.09 84.09 0 00-13.82 1c-7.77 1.31-12.44 3.75-12.81 6.69S685 682.8 692.2 686c7.65 3.43 18.07 6.11 29.35 7.54s22.05 1.46 30.31.06c7.77-1.32 12.44-3.76 12.81-6.69.73-5.76-15.2-14.06-40.08-17.23a131.2 131.2 0 00-16.49-1.07z"/><path class="cls-3" d="M622.78 729.23c8-13.12 66.5-24.52 84-55.53a118.39 118.39 0 0131.42 3.06L720 729.23z"/><path class="cls-2" d="M720 730.23h-97.22a1 1 0 01-.87-.51 1 1 0 010-1c3.27-5.4 14-10.2 27.51-16.27 20.48-9.19 46-20.63 56.47-39.23a1 1 0 01.81-.5 120.39 120.39 0 0131.72 3.08 1 1 0 01.64.49 1 1 0 01.06.81l-18.22 52.47a1 1 0 01-.9.66zm-95.17-2h94.46l17.62-50.75a119.66 119.66 0 00-29.52-2.8c-11 18.88-36.54 30.35-57.11 39.58-11.41 5.11-21.4 9.59-25.48 13.97z"/><path class="cls-3" d="M849.86 354.37s-6.35-34.68 0-57.14"/><path class="cls-2" d="M849.86 355.37a1 1 0 01-1-.82c-.07-.35-6.32-35.17 0-57.59a1 1 0 111.92.54c-6.21 22 0 56.34 0 56.69a1 1 0 01-.8 1.16zM867 730.23c-37.21 0-50.1-51.15-62.56-100.61-12.1-48-23.54-93.37-55.13-93.37-17.78 0-29 11.24-35.32 20.67-15 22.43-18.42 58.29-8 83.4a1 1 0 11-1.85.77c-10.65-25.68-7.14-62.34 8.18-85.28 9.42-14.11 22.21-21.56 37-21.56 33.15 0 44.77 46.09 57.07 94.88s25 99.1 60.62 99.1c42.38 0 78.4-54 78.76-54.51a1 1 0 011.38-.28 1 1 0 01.29 1.38c-.34.55-36.96 55.41-80.44 55.41zM615.91 707.11h-362a1 1 0 110-2h362a1 1 0 010 2z"/><ellipse class="cls-2" cx="1003.47" cy="664.3" rx="42.94" ry="13.03" transform="rotate(-51.6 1003.404 664.293)"/><path class="cls-2" d="M979.94 699.93a5.91 5.91 0 01-3.77-1.2c-3.14-2.49-3-8.28.29-16.73 3.14-8 8.83-17.35 16-26.41 13.42-16.93 31.41-31.17 38.29-25.72 3.14 2.49 3 8.28-.29 16.73-3.14 8-8.83 17.35-16 26.41s-15 16.75-22.07 21.63c-5.06 3.51-9.28 5.29-12.45 5.29zm47-69.25c-6.35 0-19.55 9.27-32.93 26.15-7.06 8.91-12.65 18.11-15.72 25.91-2.89 7.33-3.22 12.59-.9 14.43s7.36.31 13.83-4.18c6.89-4.77 14.58-12.3 21.64-21.22s12.65-18.11 15.72-25.91c2.89-7.33 3.22-12.58.9-14.42a4 4 0 00-2.48-.76z"/><path class="cls-3" d="M988 729.23c2.75-5.7 19.55-15.94 19.55-15.94l-15-47s20.79-27.51 31.79-22c20.07 10 27.6 15.14 27.6 15.14l-27.6 69.83z"/><path class="cls-2" d="M1024.31 730.23H988a1 1 0 01-.85-.47 1 1 0 01-.05-1c2.56-5.29 16-13.93 19.26-15.94l-14.74-46.26a1 1 0 01.16-.9c.87-1.15 21.4-28.11 33-22.32 19.9 9.91 27.4 15 27.71 15.21a1 1 0 01.37 1.19l-27.6 69.82a1 1 0 01-.95.67zm-34.54-2h33.86l27.05-68.44c-2.24-1.43-10.3-6.4-26.81-14.63-8.27-4.13-24.32 13.61-30.24 21.32l14.82 46.5a1 1 0 01-.43 1.16c-.15.09-13.95 8.55-18.25 14.09z"/><path class="cls-2" d="M1051.91 659.4c-12.84-6.93-28.75 59.86-33.59 69.83h19.07s23.88-64.58 14.52-69.83z"/><path class="cls-2" d="M1037.39 730.23h-19.07a1 1 0 01-.85-.47 1 1 0 01-.05-1c1.19-2.45 3.09-8.5 5.49-16.16 8.38-26.66 16.59-50.88 25.05-54.31a5 5 0 014.42.2c1.61.91 6.54 3.66-3.28 38-4.75 16.64-10.73 32.85-10.79 33a1 1 0 01-.92.74zm-17.55-2h16.85c9.09-24.71 20.94-64.44 14.74-68a3 3 0 00-2.71-.11c-8.29 3.37-18.06 34.48-23.9 53.06-2.06 6.6-3.75 11.98-4.98 15.05zM232.44 648.32h-64.28a1 1 0 110-2h64.28a1 1 0 010 2z"/><path class="cls-3" d="M552.83 235.14l-15.19-27.09"/><path class="cls-2" d="M552.83 236.14a1 1 0 01-.87-.51l-15.19-27.09a1 1 0 111.74-1l15.19 27.09a1 1 0 01-.38 1.36 1 1 0 01-.49.15zM122.79 488.8a.94.94 0 01-.48-.13c-.11-.06-11.61-6.31-17.89-.17a1 1 0 01-1.4-1.44c7.35-7.16 19.74-.43 20.26-.14a1 1 0 01-.49 1.88z"/><path class="cls-2" d="M519.48 326.8a1 1 0 01-.84-.45c-.41-.62-41.87-62.71-55.92-118-2.63-10.36-1-18.52 4.77-24.23 15.51-15.29 60.9-12.94 134.93 7a1 1 0 01.7 1.22 1 1 0 01-1.22.71c-73.29-19.73-118-22.25-133-7.5-5.26 5.18-6.69 12.69-4.24 22.32 14 55 55.23 116.81 55.64 117.43a1 1 0 01-.27 1.39 1 1 0 01-.55.11z"/><path class="cls-12" d="M619.88 429.56v168.66H451.22a168.66 168.66 0 01168.66-168.66z"/><path class="cls-12" d="M619.88 599.22H451.22a1 1 0 01-1-1c0-93.55 76.11-169.66 169.66-169.66a1 1 0 011 1v168.66a1 1 0 01-1 1zm-167.66-2h166.66V430.56c-91.66.54-166.12 75-166.66 166.66z"/></svg>