<?xml version="1.0" standalone="no"?><svg xmlns="http://www.w3.org/2000/svg" viewBox="0 0 1440 320"><path fill="#0099ff" fill-opacity="0.25" d="M0,224L40,202.7C80,181,160,139,240,149.3C320,160,400,224,480,240C560,256,640,224,720,181.3C800,139,880,85,960,69.3C1040,53,1120,75,1200,122.7C1280,171,1360,245,1400,282.7L1440,320L1440,320L1400,320C1360,320,1280,320,1200,320C1120,320,1040,320,960,320C880,320,800,320,720,320C640,320,560,320,480,320C400,320,320,320,240,320C160,320,80,320,40,320L0,320Z"></path></svg>